<svg xmlns="http://www.w3.org/2000/svg" width="20" height="17.413" viewBox="0 0 20 17.413"><defs><style>.a{fill:#fff;}</style></defs><g transform="translate(0 -19.401)"><path class="a" d="M.353,27.75l4.608,1.72,1.784,5.736a.542.542,0,0,0,.862.259l2.569-2.094a.766.766,0,0,1,.934-.026l4.633,3.364a.543.543,0,0,0,.851-.328l3.394-16.326a.543.543,0,0,0-.727-.617L.348,26.734A.544.544,0,0,0,.353,27.75Zm6.1.8,9.007-5.547a.157.157,0,0,1,.189.248L8.221,30.165a1.541,1.541,0,0,0-.478.922L7.49,32.964A.233.233,0,0,1,7.036,33l-.974-3.422A.907.907,0,0,1,6.458,28.555Z" transform="translate(0)"/></g></svg>